<svg xmlns="http://www.w3.org/2000/svg" viewBox="0 0 294.4 307.91"><defs><style>.cls-1{fill:#fdcc4b;}</style></defs><g id="Layer_2" data-name="Layer 2"><g id="Layer_1-2" data-name="Layer 1"><path class="cls-1" d="M66,27.7c5.56,1.41,12.79,3.18,20,5.1,5.43,1.45,10.76,3.27,16.21,4.59s9.63-.64,13.11-5Q126.35,18.74,137.73,5.3c6.23-7.31,13.46-7,19.66.59Q167.74,18.58,178,31.32c5.24,6.48,8.87,7.43,17,5.1,10.34-3,20.72-5.82,31.17-8.38,9.8-2.4,16.23,2.82,16.66,12.85.47,11.31,1.09,22.61,1.78,33.9.34,5.66,3.23,9.6,8.61,11.63q14.86,5.6,29.69,11.26c1.23.47,2.47,1,3.65,1.54,8.12,4,10.08,10.8,5.21,18.41-6.41,10-13,20-19.34,30a11.08,11.08,0,0,0,0,12.64c6,9.46,12,19,18.24,28.3,6.7,9.93,4.25,17.29-7.21,21.47q-15.39,5.61-30.59,11.81c-4.94,2-8,5.79-8.31,11.4-.56,10.46-1.49,20.92-1.58,31.39-.13,15.8-9.48,17.88-20.76,14.41-10.27-3.16-20.65-5.93-31-8.64-4.8-1.25-9.19,1.18-12.5,5.4q-10.54,13.47-21.62,26.52c-6.24,7.39-13.6,7.43-19.73.13-7.12-8.48-14.06-17.12-20.93-25.81-4.14-5.23-9-7.36-15.68-5.49-11.49,3.2-23,6.26-34.68,8.88C58.5,281.75,52.73,277.65,52,269.9c-1-10.76-1.45-21.59-1.66-32.4-.18-9.16-4.07-14.78-13-17.58-9.41-3-18.58-6.73-27.81-10.26s-11.93-11-6.67-19.47Q12,175.48,21.57,161c3.09-4.7,3.21-9.1.15-13.84-6.55-10.12-13-20.28-19.38-30.54-4.29-7-2.68-13.56,4.83-16.91,10-4.48,20.42-8.29,30.78-12,9-3.27,11.74-6.28,12.23-15.79.47-9,.76-18,1-26.95a37.55,37.55,0,0,1,1.1-8.39C54,30.27,57.68,27.49,66,27.7Zm167.36,85.09c.09-9.61-3.69-15.52-10.53-18.44-5.74-2.45-14.53-.56-19.34,4.25q-33,33-65.87,66c-2.82,2.85-4.36,2.69-7.05-.09-8.27-8.55-16.83-16.84-25.29-25.21-7-6.93-17.34-7.14-24.17-.52-7,6.84-7.5,17.4-.63,24.41,13,13.28,26.26,26.31,39.36,39.49,9.3,9.35,19.35,9.55,28.63.29q39.87-39.82,79.66-79.72C231.6,119.79,233.4,115.72,233.35,112.79Z"/></g></g></svg>